<?xml version="1.0" encoding="iso-8859-1"?>
<!-- Generator: Adobe Illustrator 16.0.0, SVG Export Plug-In . SVG Version: 6.00 Build 0)  -->
<!DOCTYPE svg PUBLIC "-//W3C//DTD SVG 1.1//EN" "http://www.w3.org/Graphics/SVG/1.1/DTD/svg11.dtd">
<svg version="1.1" id="Capa_1" xmlns="http://www.w3.org/2000/svg" xmlns:xlink="http://www.w3.org/1999/xlink" x="0px" y="0px"
	 width="408.532px" height="408.531px" viewBox="0 0 408.532 408.531" style="enable-background:new 0 0 408.532 408.531;"
	 xml:space="preserve">
<g>
	<g>
		<path d="M296.404,179.759c0-1.44-1.166-2.611-2.604-2.611c-2.55,0-4.619,2.068-4.619,4.612c0,3.918,3.191,7.105,7.107,7.105
			c3.628,0,6.814-1.893,8.63-4.741c-0.881,0.635-1.964,1.01-3.14,1.01C298.807,185.134,296.404,182.726,296.404,179.759z"/>
		<path d="M204.266,0.001C91.637,0.001,0,91.635,0,204.266S91.637,408.53,204.266,408.53c112.631,0,204.266-91.633,204.266-204.264
			S316.897,0.001,204.266,0.001z M118.259,333.056c0,2.966-2.402,5.376-5.375,5.376c-2.971,0-5.375-2.41-5.375-5.376v-98.548
			c0-2.966,2.405-5.375,5.375-5.375c2.974,0,5.375,2.409,5.375,5.375V333.056z M134.385,333.056c0,2.966-2.401,5.376-5.375,5.376
			c-2.971,0-5.375-2.41-5.375-5.376v-98.548c0-2.966,2.404-5.375,5.375-5.375c2.975,0,5.375,2.409,5.375,5.375V333.056z
			 M150.512,333.056c0,2.966-2.402,5.376-5.375,5.376c-2.971,0-5.375-2.41-5.375-5.376v-98.548c0-2.966,2.405-5.375,5.375-5.375
			c2.974,0,5.375,2.409,5.375,5.375V333.056z M166.638,333.056c0,2.966-2.402,5.376-5.375,5.376c-2.971,0-5.375-2.41-5.375-5.376
			V162.833c0-2.969,2.404-5.375,5.375-5.375c2.974,0,5.375,2.406,5.375,5.375V333.056z M182.764,333.056
			c0,2.966-2.402,5.376-5.375,5.376c-2.972,0-5.375-2.41-5.375-5.376V162.833c0-2.969,2.404-5.375,5.375-5.375
			c2.974,0,5.375,2.406,5.375,5.375V333.056z M198.89,333.056c0,2.966-2.401,5.376-5.375,5.376c-2.971,0-5.375-2.41-5.375-5.376
			V162.833c0-2.969,2.404-5.375,5.375-5.375c2.974,0,5.375,2.406,5.375,5.375V333.056z M220.392,333.056
			c0,2.966-2.404,5.376-5.375,5.376c-2.972,0-5.376-2.41-5.376-5.376V162.833c0-2.969,2.404-5.375,5.376-5.375
			c2.971,0,5.375,2.406,5.375,5.375V333.056z M236.517,333.056c0,2.966-2.402,5.376-5.375,5.376c-2.972,0-5.374-2.41-5.374-5.376
			V162.833c0-2.969,2.402-5.375,5.374-5.375c2.973,0,5.375,2.406,5.375,5.375V333.056z M252.644,333.056
			c0,2.966-2.405,5.376-5.376,5.376s-5.375-2.41-5.375-5.376V162.833c0-2.969,2.404-5.375,5.375-5.375s5.376,2.406,5.376,5.375
			V333.056z M268.77,333.056c0,2.966-2.404,5.376-5.375,5.376s-5.376-2.41-5.376-5.376v-98.548c0-2.966,2.405-5.375,5.376-5.375
			s5.375,2.409,5.375,5.375V333.056z M284.897,333.056c0,2.966-2.404,5.376-5.375,5.376c-2.972,0-5.376-2.41-5.376-5.376v-98.548
			c0-2.966,2.404-5.375,5.376-5.375c2.971,0,5.375,2.409,5.375,5.375V333.056z M301.022,333.056c0,2.966-2.402,5.376-5.374,5.376
			c-2.973,0-5.375-2.41-5.375-5.376v-98.548c0-2.966,2.402-5.375,5.375-5.375c2.972,0,5.374,2.409,5.374,5.375V333.056z
			 M298.482,219.363c-9.575,0-18.578-3.727-25.354-10.499c-6.771-6.776-10.499-15.779-10.488-25.352
			c0-16.407,13.344-29.754,29.753-29.754c13.723,0,24.884,11.161,24.884,24.878c0,11.566-9.419,20.979-20.988,20.979
			c-9.848,0-17.858-8.008-17.858-17.856c0-8.473,6.892-15.363,15.37-15.363c4.981,0,9.334,2.746,11.638,6.804
			c-2.136-5.1-7.181-8.69-13.045-8.69c-10.477,0-19.002,8.525-19.002,19.008c0,6.707,2.603,13.008,7.35,17.749
			c4.734,4.744,11.039,7.358,17.742,7.358c18.038,0,32.724-14.678,32.724-32.723c0-23.292-18.949-42.242-42.246-42.242H108.256
			c-23.292,0-42.239,18.95-42.239,42.242c0,18.04,14.674,32.723,32.72,32.723c13.834,0,25.097-11.266,25.097-25.101
			c0-10.482-8.524-19.008-19.003-19.008c-5.853,0-10.884,3.581-13.029,8.659c2.302-4.042,6.648-6.771,11.623-6.771
			c8.47,0,15.362,6.89,15.362,15.362c0,9.848-8.01,17.856-17.859,17.856c-11.566,0-20.979-9.413-20.979-20.979
			c0-13.717,11.16-24.878,24.882-24.878c16.407,0,29.754,13.347,29.754,29.759c0,19.769-16.079,35.851-35.848,35.851
			c-23.97,0-43.471-19.505-43.471-43.473c0-29.221,23.775-52.993,52.99-52.993h180.703c29.218,0,52.992,23.772,52.992,52.993
			C341.958,199.864,322.457,219.363,298.482,219.363z M336.582,108.181H60.642c-2.974,0-5.375-2.41-5.375-5.375
			c0-2.969,2.402-5.376,5.375-5.376h275.94c2.971,0,5.376,2.407,5.376,5.376C341.958,105.771,339.547,108.181,336.582,108.181z"/>
		<path d="M100.928,188.865c3.919,0,7.108-3.187,7.108-7.105c0-2.544-2.071-4.612-4.611-4.612c-1.447,0-2.615,1.171-2.615,2.611
			c0,2.967-2.401,5.375-5.375,5.375c-1.171,0-2.247-0.37-3.126-1.005C94.12,186.972,97.306,188.865,100.928,188.865z"/>
	</g>
</g>
<g>
</g>
<g>
</g>
<g>
</g>
<g>
</g>
<g>
</g>
<g>
</g>
<g>
</g>
<g>
</g>
<g>
</g>
<g>
</g>
<g>
</g>
<g>
</g>
<g>
</g>
<g>
</g>
<g>
</g>
</svg>
